<svg xmlns="http://www.w3.org/2000/svg" xmlns:xlink="http://www.w3.org/1999/xlink" viewBox="0 0 50 50" version="1.1">
<g id="surface1">
<path style=" " d="M 7 6 C 4.242188 6 2 8.242188 2 11 L 2 25 C 2 27.753906 4.242188 30 7 30 L 35 30 C 37.753906 30 40 27.753906 40 25 L 40 23 L 42 23 C 42.550781 23 43 22.554688 43 22.003906 L 43 14 C 43 13.449219 42.550781 13 42 13 L 40 13 L 40 11 C 40 8.242188 37.753906 6 35 6 Z M 43.925781 24.28125 C 43.40625 24.726563 42.738281 25.003906 42 25.003906 C 41.996094 28.863281 38.859375 32 35 32 C 35 32 6.328125 32.046875 6 32 L 6 39 C 6 41.757813 8.246094 44 11 44 L 39 44 C 41.757813 44 44 41.757813 44 39 L 44 37 L 46 37 C 46.554688 37 47 36.558594 47 36.003906 L 47 28.003906 C 47 27.449219 46.554688 27.003906 46 27.003906 L 44 27.003906 L 44 25 C 44 24.757813 43.960938 24.519531 43.925781 24.28125 Z "></path>
</g>
</svg>