<svg xmlns="http://www.w3.org/2000/svg" xmlns:xlink="http://www.w3.org/1999/xlink" viewBox="0 0 50 50" version="1.1">
<g id="surface1">
<path style=" " d="M 7 6 C 4.253906 6 2 8.25 2 11 L 2 25 C 2 27.746094 4.253906 30 7 30 L 35 30 C 37.75 30 40 27.746094 40 25 L 40 23.003906 L 42 23.003906 C 42.550781 23.003906 43 22.554688 43 22.003906 L 43 14 C 43 13.449219 42.550781 13.003906 42 13 L 40 13 L 40 11 C 40 8.25 37.75 6 35 6 Z M 7 8 L 35 8 C 36.667969 8 38 9.332031 38 11 L 38 14 C 38 14.554688 38.449219 15 39 15 L 41 15 L 41 21.003906 L 39 21.003906 C 38.449219 21.003906 38 21.453125 38 22.003906 L 38 25 C 38 26.667969 36.667969 28 35 28 L 7 28 C 5.332031 28 4 26.667969 4 25 L 4 11 C 4 9.332031 5.332031 8 7 8 Z M 43.925781 24.28125 C 43.40625 24.726563 42.738281 25.003906 42 25.003906 L 42 28.003906 C 42 28.558594 42.445313 29 43 29 L 45 29 L 45 35.003906 L 43 35.003906 C 42.445313 35.003906 42 35.449219 42 36.003906 L 42 39 C 42 40.652344 40.652344 42 39 42 L 11 42 C 9.347656 42 8 40.652344 8 39 L 8 32 C 8 32 6.328125 32.050781 6 32 L 6 39 C 6 41.757813 8.246094 44 11 44 L 39 44 C 41.757813 44 44 41.757813 44 39 L 44 37 L 46 37 C 46.554688 37 47 36.558594 47 36.003906 L 47 28.003906 C 47 27.449219 46.554688 27.003906 46 27.003906 L 44 27.003906 L 44 25 C 44 24.757813 43.960938 24.519531 43.925781 24.28125 Z "></path>
</g>
</svg>