<?xml version="1.0" encoding="iso-8859-1" standalone="yes"?><!-- Generator: Adobe Illustrator 19.0.0, SVG Export Plug-In . SVG Version: 6.00 Build 0)  --><svg xmlns="http://www.w3.org/2000/svg" xmlns:xlink="http://www.w3.org/1999/xlink" version="1.1" id="Capa_1" x="0px" y="0px" viewBox="0 0 511.999 511.999" style="enable-background:new 0 0 511.999 511.999;zoom: 1;" xml:space="preserve"><g><g><circle cx="226.032" r="15" fill="whitesmoke" cy="436.006"></circle></g></g><g><g><circle cx="76.037" r="15" fill="whitesmoke" cy="286.011"></circle></g></g><g><g><circle cx="119.976" r="15" fill="whitesmoke" cy="392.068"></circle></g></g><g><g><circle cx="332.099" r="15" fill="whitesmoke" cy="392.068"></circle></g></g><g><g><circle cx="119.976" r="15" fill="whitesmoke" cy="179.944"></circle></g></g><g><g><path d="M226.034,181.01 c-57.895,0 -104.997,47.102 -104.997,104.997 s47.102,104.997 104.997,104.997 s104.997,-47.102 104.997,-104.997 S283.929,181.01 226.034,181.01  z M226.034,361.005 c-41.354,0 -74.998,-33.644 -74.998,-74.998 c0,-41.354 33.644,-74.998 74.998,-74.998 c41.354,0 74.998,33.644 74.998,74.998 C301.032,327.361 267.388,361.005 226.034,361.005  z " fill="whitesmoke"></path></g></g><g><g><path d="M226.034,241.008 c-24.812,0 -44.999,20.186 -44.999,44.999 c0,24.812 20.186,44.999 44.999,44.999 c24.812,0 44.999,-20.186 44.999,-44.999 C271.033,261.195 250.846,241.008 226.034,241.008  z M226.034,301.007 c-8.271,0 -15,-6.729 -15,-15 c0,-8.271 6.729,-15 15,-15 c8.271,0 15,6.729 15,15 C241.034,294.278 234.305,301.007 226.034,301.007  z " fill="whitesmoke"></path></g></g><g><g><path d="M435.621,90.153 C385.278,36.967 313.15,5.804 227.037,0.034 c-8.665,-0.578 -16.003,6.299 -16.003,14.966 v46.522 C93.389,69.235 0.041,166.964 0.041,286.006 c0,124.386 101.629,225.993 225.993,225.993 c119.042,0 216.771,-93.348 224.485,-210.993 h46.439 c8.459,0 15.239,-6.996 14.994,-15.435 C509.701,208.108 483.307,140.534 435.621,90.153  z M226.034,482.001 c-108.072,0 -195.994,-87.922 -195.994,-195.994 c0,-102.5 79.904,-186.78 180.994,-194.428 v44.433 c0,8.284 6.716,15 15,15 c74.437,0 134.996,60.559 134.996,134.996 c0,8.284 6.716,15 15,15 h44.433 C412.814,402.096 328.534,482.001 226.034,482.001  z M390.353,271.006 L390.353,271.006 c-7.152,-79.04 -70.279,-142.167 -149.319,-149.318 V31.374 c139.683,15.292 230.015,105.444 240.128,239.632 H390.353  z " fill="whitesmoke"></path></g></g><g></g><g></g><g></g><g></g><g></g><g></g><g></g><g></g><g></g><g></g><g></g><g></g><g></g><g></g><g></g></svg>