<svg xmlns="http://www.w3.org/2000/svg" xmlns:xlink="http://www.w3.org/1999/xlink" viewBox="0 0 50 50" version="1.1">
<g id="surface1">
<path style=" " d="M 7 9 C 5.898438 9 5 9.898438 5 11 L 5 11.4375 C 6.328125 12.019531 7.324219 13.160156 7.75 14.5625 C 7.917969 14.816406 8 15.246094 8 16 L 8 18 L 11 18 L 11 19 L 13 19 L 13 18 L 15 18 C 16.101563 18 17 17.101563 17 16 L 17 11 C 17 9.898438 16.101563 9 15 9 Z M 34 10 C 32.898438 10 32 10.898438 32 12 L 32 16 C 32 17.101563 32.898438 18 34 18 L 35 18 L 35 19 L 37 19 L 37 18 L 38 18 L 38 19 L 40 19 L 40 18 L 41 18 C 42.101563 18 43 17.101563 43 16 L 43 12 C 43 10.898438 42.101563 10 41 10 Z M 1 13 C 0.449219 13 0 13.449219 0 14 L 0 36 C 0 36.554688 0.449219 37 1 37 L 3 37 C 4.652344 37 6 35.652344 6 34 L 6 16 C 6 14.347656 4.652344 13 3 13 Z M 45 13 C 44.445313 13 44 13.449219 44 14 L 44 18.625 C 47.242188 19.242188 49.804688 20.101563 49.96875 20.15625 C 49.984375 20.160156 49.984375 20.183594 50 20.1875 L 50 14 C 50 13.449219 49.554688 13 49 13 Z M 20 15 C 19.648438 15 19.335938 15.199219 19.15625 15.5 L 16.4375 20 L 8 20 L 8 30 L 16.4375 30 L 19.15625 34.5 C 19.335938 34.800781 19.648438 35 20 35 L 27 35 C 27.207031 35 27.425781 34.933594 27.59375 34.8125 L 34.3125 30 L 38 30 C 43.050781 30 49.058594 28.023438 49.3125 27.9375 C 49.722656 27.800781 50 27.433594 50 27 L 50 23 C 50 22.570313 49.71875 22.199219 49.3125 22.0625 C 49.0625 21.976563 43.15625 20 38 20 L 34.3125 20 L 27.59375 15.1875 C 27.425781 15.066406 27.207031 15 27 15 Z M 22 22 L 27 22 C 28.65625 22 30 23.34375 30 25 C 30 26.65625 28.65625 28 27 28 L 22 28 Z M 50 29.8125 C 49.980469 29.820313 49.957031 29.835938 49.9375 29.84375 C 49.769531 29.898438 47.21875 30.730469 44 31.34375 L 44 36 C 44 36.554688 44.445313 37 45 37 L 49 37 C 49.554688 37 50 36.554688 50 36 Z M 11 31 L 11 32 L 8 32 L 8 34 C 8 34.496094 7.972656 34.808594 7.90625 35 C 7.582031 36.609375 6.46875 37.917969 5 38.5625 L 5 39 C 5 40.105469 5.894531 41 7 41 L 15 41 C 16.105469 41 17 40.105469 17 39 L 17 34 C 17 32.894531 16.105469 32 15 32 L 13 32 L 13 31 Z M 35 31 L 35 32 L 34 32 C 32.898438 32 32 32.898438 32 34 L 32 38 C 32 39.101563 32.898438 40 34 40 L 41 40 C 42.101563 40 43 39.101563 43 38 L 43 34 C 43 32.898438 42.101563 32 41 32 L 40 32 L 40 31 L 38 31 L 38 32 L 37 32 L 37 31 Z "></path>
</g>
</svg>