<?xml version="1.0" encoding="iso-8859-1" standalone="yes"?><!-- Generator: Adobe Illustrator 19.0.0, SVG Export Plug-In . SVG Version: 6.00 Build 0)  --><svg xmlns="http://www.w3.org/2000/svg" xmlns:xlink="http://www.w3.org/1999/xlink" version="1.1" id="Capa_1" x="0px" y="0px" viewBox="0 0 368 368" style="enable-background:new 0 0 368 368;zoom: 1;" xml:space="preserve"><g><g><path d="M248,208 H120 c-4.416,0 -8,3.576 -8,8 s3.584,8 8,8 h128 c4.424,0 8,-3.576 8,-8 S252.424,208 248,208  z " fill="whitesmoke"></path></g></g><g><g><path d="M248,256 H120 c-4.416,0 -8,3.576 -8,8 s3.584,8 8,8 h128 c4.424,0 8,-3.576 8,-8 S252.424,256 248,256  z " fill="whitesmoke"></path></g></g><g><g><path d="M248,304 H120 c-4.416,0 -8,3.576 -8,8 s3.584,8 8,8 h128 c4.424,0 8,-3.576 8,-8 S252.424,304 248,304  z " fill="whitesmoke"></path></g></g><g><g><path d="M288,160 h-64 V16 h24 c4.424,0 8,-3.576 8,-8 s-3.576,-8 -8,-8 h-32 h-64 h-32 c-4.416,0 -8,3.576 -8,8 s3.584,8 8,8 h24 v144 H80 c-8.824,0 -16,7.176 -16,16 v152 c0,22.056 17.944,40 40,40 h160 c22.056,0 40,-17.944 40,-40 V176 C304,167.176 296.824,160 288,160  z M160,16 h48 v144 h-48 V16  z M288,328 c0,13.232 -10.768,24 -24,24 H104 c-13.232,0 -24,-10.768 -24,-24 V176 l71.976,-0.008 c0.008,0 0.016,0.008 0.024,0.008 h64 c0.016,0 0.032,-0.008 0.048,-0.008 L288,175.984 V328  z " fill="whitesmoke"></path></g></g><g></g><g></g><g></g><g></g><g></g><g></g><g></g><g></g><g></g><g></g><g></g><g></g><g></g><g></g><g></g></svg>