<svg xmlns="http://www.w3.org/2000/svg" viewBox="0 0 24 24">
    <path style="line-height:normal;text-indent:0;text-align:start;text-decoration-line:none;text-decoration-style:solid;text-decoration-color:#000;text-transform:none;block-progression:tb;isolation:auto;mix-blend-mode:normal" d="M 3.984375 2.9863281 A 1.0001 1.0001 0 0 0 3 4 L 3 19 C 3 20.093063 3.9069372 21 5 21 L 20 21 A 1.0001 1.0001 0 1 0 20 19 L 5 19 L 5 4 A 1.0001 1.0001 0 0 0 3.984375 2.9863281 z M 18.980469 6.9902344 A 1.0001 1.0001 0 0 0 18.292969 7.2929688 L 14.984375 10.601562 L 12.691406 8.4082031 A 1.0001 1.0001 0 0 0 11.304688 8.4121094 L 7.3046875 12.28125 A 1.0001 1.0001 0 1 0 8.6953125 13.71875 L 12.003906 10.517578 L 14.308594 12.722656 A 1.0001 1.0001 0 0 0 15.707031 12.707031 L 19.707031 8.7070312 A 1.0001 1.0001 0 0 0 18.980469 6.9902344 z" font-weight="400" font-family="sans-serif" white-space="normal" overflow="visible"></path>
</svg>