<?xml version="1.0" standalone="yes"?><svg xmlns="http://www.w3.org/2000/svg" viewBox="0 0 30 30" style="zoom: 1;"><path style="line-height:normal;text-indent:0;text-align:start;text-decoration-line:none;text-decoration-style:solid;text-decoration-color:#000;text-transform:none;block-progression:tb;isolation:auto;mix-blend-mode:normal" font-family="sans-serif" white-space="normal" font-weight="400" d="M21,4 A1.0001,1.0001 0 0 0 20,5 L20,25 A1.0001,1.0001 0 0 0 21,26 L25,26 A1.0001,1.0001 0 0 0 26,25 L26,5 A1.0001,1.0001 0 0 0 25,4 L21,4  z M22,6 L24,6 L24,24 L22,24 L22,6  z M13,10 C12.448,10 12,10.448 12,11 L12,25 C12,25.552 12.448,26 13,26 L17,26 C17.552,26 18,25.552 18,25 L18,11 C18,10.448 17.552,10 17,10 L13,10  z M5,16 C4.448,16 4,16.448 4,17 L4,25 C4,25.552 4.448,26 5,26 L9,26 C9.552,26 10,25.552 10,25 L10,17 C10,16.448 9.552,16 9,16 L5,16  z " fill="whitesmoke" overflow="visible"></path></svg>