<?xml version="1.0" standalone="yes"?><svg xmlns="http://www.w3.org/2000/svg" viewBox="0 0 30 30" style="zoom: 1;"><path style="line-height:normal;text-indent:0;text-align:start;text-decoration-line:none;text-decoration-style:solid;text-decoration-color:#000;text-transform:none;block-progression:tb;isolation:auto;mix-blend-mode:normal" font-family="sans-serif" white-space="normal" font-weight="400" d="M21,4 A1.0001,1.0001 0 0 0 20,5 L20,25 A1.0001,1.0001 0 0 0 21,26 L25,26 A1.0001,1.0001 0 0 0 26,25 L26,5 A1.0001,1.0001 0 0 0 25,4 L21,4  z M22,6 L24,6 L24,24 L22,24 L22,6  z M13,10 A1.0001,1.0001 0 0 0 12,11 L12,25 A1.0001,1.0001 0 0 0 13,26 L17,26 A1.0001,1.0001 0 0 0 18,25 L18,11 A1.0001,1.0001 0 0 0 17,10 L13,10  z M14,12 L16,12 L16,24 L14,24 L14,12  z M5,16 A1.0001,1.0001 0 0 0 4,17 L4,25 A1.0001,1.0001 0 0 0 5,26 L9,26 A1.0001,1.0001 0 0 0 10,25 L10,17 A1.0001,1.0001 0 0 0 9,16 L5,16  z M6,18 L8,18 L8,24 L6,24 L6,18  z " fill="whitesmoke" overflow="visible"></path></svg>