<?xml version="1.0" standalone="yes"?><svg xmlns="http://www.w3.org/2000/svg" viewBox="0 0 30 30" style="zoom: 1;"><path d="M15,3 C8.373,3 3,8.373 3,15 c0,6.627 5.373,12 12,12 s12,-5.373 12,-12 C27,8.373 21.627,3 15,3  z M21.707,12.707 l-7.56,7.56 c-0.188,0.188 -0.442,0.293 -0.707,0.293 s-0.52,-0.105 -0.707,-0.293 l-3.453,-3.453 c-0.391,-0.391 -0.391,-1.023 0,-1.414 s1.023,-0.391 1.414,0 l2.746,2.746 l6.853,-6.853 c0.391,-0.391 1.023,-0.391 1.414,0 S22.098,12.316 21.707,12.707  z " fill="whitesmoke"></path></svg>