<?xml version="1.0" standalone="yes"?><svg xmlns="http://www.w3.org/2000/svg" xmlns:xlink="http://www.w3.org/1999/xlink" version="1.1" id="Layer_1" x="0px" y="0px" viewBox="0 0 128 128" style="enable-background:new 0 0 128 128;zoom: 1;" xml:space="preserve"><g><g><circle cx="64" cy="64" r="50" style="fill:black; "></circle></g><g><path d="M64,117 c-29.2,0 -53,-23.8 -53,-53 s23.8,-53 53,-53 c29.2,0 53,23.8 53,53 S93.2,117 64,117  z M64,17 c-25.9,0 -47,21.1 -47,47 s21.1,47 47,47 s47,-21.1 47,-47 S89.9,17 64,17  z " style="fill:whitesmoke; "></path></g><g><path d="M64,74 c-2.7,0 -5.2,-1 -7.1,-2.9 C55,69.2 54,66.7 54,64 s1,-5.2 2.9,-7.1 C58.8,55 61.3,54 64,54 c2.7,0 5.2,1 7.1,2.9 c3.9,3.9 3.9,10.2 0,14.1 c0,0 0,0 0,0 C69.2,73 66.7,74 64,74  z M69,68.9 L69,68.9 L69,68.9  z M64,60 c-1.1,0 -2.1,0.4 -2.8,1.2 C60.4,61.9 60,62.9 60,64 s0.4,2.1 1.2,2.8 c1.5,1.5 4.1,1.5 5.7,0 c0.8,-0.8 1.2,-1.8 1.2,-2.8 s-0.4,-2.1 -1.2,-2.8 C66.1,60.4 65.1,60 64,60  z " style="fill:whitesmoke; "></path></g><g><path d="M34,67 c-1.7,0 -3,-1.3 -3,-3 c0,-18.2 14.8,-33 33,-33 c4.4,0 8.8,0.9 12.8,2.6 c1.5,0.6 2.2,2.4 1.6,3.9 c-0.6,1.5 -2.4,2.2 -3.9,1.6 C71.2,37.7 67.6,37 64,37 c-14.9,0 -27,12.1 -27,27 C37,65.7 35.7,67 34,67  z " style="fill:whitesmoke; "></path></g><g><path d="M79,93 c-1,0 -2,-0.5 -2.6,-1.5 c-0.8,-1.4 -0.3,-3.3 1.1,-4.1 C85.8,82.6 91,73.6 91,64 c0,-3.6 -0.7,-7.2 -2.1,-10.5 c-0.6,-1.5 0.1,-3.3 1.6,-3.9 c1.5,-0.6 3.3,0.1 3.9,1.6 C96.1,55.2 97,59.6 97,64 c0,11.8 -6.3,22.7 -16.5,28.6 C80,92.9 79.5,93 79,93  z " style="fill:whitesmoke; "></path></g><g><path d="M68.9,62.1 c-0.8,0 -1.5,-0.3 -2.1,-0.9 c-1.2,-1.2 -1.2,-3.1 0,-4.2 l16.3,-16.3 c1.2,-1.2 3.1,-1.2 4.2,0 c1.2,1.2 1.2,3.1 0,4.2 L71.1,61.2 C70.5,61.8 69.7,62.1 68.9,62.1  z " style="fill:whitesmoke; "></path></g><g><path d="M49,93 c-0.5,0 -1,-0.1 -1.5,-0.4 C37.3,86.7 31,75.8 31,64 c0,-1.7 1.3,-3 3,-3 s3,1.3 3,3 c0,9.6 5.2,18.6 13.5,23.4 c1.4,0.8 1.9,2.7 1.1,4.1 C51.1,92.5 50.1,93 49,93  z " style="fill:whitesmoke; "></path></g></g></svg>