<?xml version="1.0" standalone="yes"?><svg xmlns="http://www.w3.org/2000/svg" viewBox="0 0 30 30" style="zoom: 1;"><path d="M21,4 C20.448,4 20,4.448 20,5 L20,25 C20,25.552 20.448,26 21,26 L25,26 C25.552,26 26,25.552 26,25 L26,5 C26,4.448 25.552,4 25,4 L21,4  z M13,10 C12.448,10 12,10.448 12,11 L12,25 C12,25.552 12.448,26 13,26 L17,26 C17.552,26 18,25.552 18,25 L18,11 C18,10.448 17.552,10 17,10 L13,10  z M5,16 C4.448,16 4,16.448 4,17 L4,25 C4,25.552 4.448,26 5,26 L9,26 C9.552,26 10,25.552 10,25 L10,17 C10,16.448 9.552,16 9,16 L5,16  z " fill="whitesmoke"></path></svg>