<?xml version="1.0" standalone="yes"?><svg xmlns="http://www.w3.org/2000/svg" xmlns:xlink="http://www.w3.org/1999/xlink" viewBox="0 0 16 16" version="1.1" style="zoom: 1;"><g id="surface1"><path d="M7.511719,1 C6.140625,1 5.011719,2.128906 5.011719,3.5 L5.011719,9.121094 C4.414063,9.746094 4,10.5625 4,11.5 C4,13.425781 5.574219,15 7.5,15 C9.425781,15 11,13.425781 11,11.5 C11,10.574219 10.597656,9.765625 10.011719,9.140625 L10.011719,3.5 C10.011719,2.128906 8.882813,1 7.511719,1  Z M7.511719,2 C8.339844,2 9.011719,2.671875 9.011719,3.5 L9.011719,9.289063 C9.011719,9.429688 9.070313,9.5625 9.175781,9.65625 C9.683594,10.117188 10,10.765625 10,11.5 C10,12.886719 8.886719,14 7.5,14 C6.113281,14 5,12.886719 5,11.5 C5,10.757813 5.328125,10.105469 5.84375,9.640625 C5.949219,9.546875 6.011719,9.414063 6.011719,9.269531 L6.011719,3.5 C6.011719,2.671875 6.683594,2 7.511719,2  Z M7,5 L7,10.089844 C6.402344,10.300781 6,10.863281 6,11.5 C6,12.328125 6.671875,13 7.5,13 C8.328125,13 9,12.328125 9,11.5 C9,10.863281 8.597656,10.300781 8,10.089844 L8,5  Z " style="" fill="whitesmoke"></path></g></svg>